<?xml version="1.0" encoding="utf-8"?>
<!-- Generator: Adobe Illustrator 23.0.1, SVG Export Plug-In . SVG Version: 6.00 Build 0)  -->
<svg version="1.1" id="Ebene_1" xmlns="http://www.w3.org/2000/svg" xmlns:xlink="http://www.w3.org/1999/xlink" x="0px" y="0px"
	 viewBox="0 0 1280.01 799.99" style="enable-background:new 0 0 1280.01 799.99;" xml:space="preserve">
<style type="text/css">
	.st0{fill:#D5A35A;}
</style>
<g>
	<g>
		<g>
			<path class="st0" d="M140.89,555.73h11.82v-58.25h-11.82v-1.19h19.8c1,0,1.99-0.01,2.98-0.04c0.99-0.03,1.99-0.07,2.98-0.13
				c0.99,0,1.99-0.01,2.98-0.04c0.99-0.03,1.99-0.04,2.98-0.04c2.12,0,4.02,0.03,5.69,0.09c1.67,0.05,3.23,0.16,4.68,0.3
				c1.46,0.14,2.84,0.34,4.15,0.6c1.31,0.26,2.71,0.58,4.21,0.98c4.32,1.13,8.07,2.65,11.22,4.55c3.16,1.9,5.75,4.1,7.77,6.6
				c2.02,2.5,3.51,5.23,4.47,8.18c0.96,2.95,1.44,6.05,1.44,9.28c0,3.75-0.57,7.11-1.7,10.09c-1.13,2.98-2.69,5.62-4.68,7.92
				c-1.99,2.3-4.32,4.29-6.97,5.96c-2.66,1.67-5.52,3.02-8.57,4.05c-1.7,0.62-3.32,1.11-4.84,1.45c-1.53,0.34-3.09,0.6-4.68,0.77
				c-1.6,0.17-3.36,0.29-5.27,0.34c-1.91,0.05-4.11,0.08-6.6,0.08c-1.07,0-2.2-0.01-3.41-0.04c-1.21-0.03-2.41-0.07-3.62-0.13
				c-1.21-0.06-2.4-0.1-3.57-0.13c-1.18-0.03-2.29-0.04-3.36-0.04h-18.1V555.73z M163.35,555.73c1.21,0.11,2.61,0.2,4.2,0.25
				c1.6,0.06,3.36,0.09,5.27,0.09c2.41,0,4.81-0.1,7.18-0.3c2.38-0.19,4.65-0.62,6.81-1.27s4.19-1.59,6.07-2.81
				c1.88-1.22,3.57-2.82,5.05-4.81c2.27-3.06,3.85-6.2,4.74-9.41c0.89-3.21,1.34-6.71,1.34-10.52c0-4.48-0.53-8.56-1.6-12.22
				c-1.06-3.66-2.82-6.79-5.27-9.37c-2.45-2.58-5.69-4.58-9.74-6c-4.04-1.42-9.04-2.13-15.01-2.13c-1.78,0-3.39,0.03-4.84,0.09
				c-1.45,0.06-2.86,0.12-4.2,0.17V555.73z"/>
			<path class="st0" d="M227.63,555.73h11.82v-58.25h-11.82v-1.19h20.23c0.85,0,1.7-0.01,2.56-0.04s1.7-0.07,2.56-0.13
				c0.85,0,1.7-0.01,2.56-0.04s1.7-0.04,2.56-0.04c4.19,0,7.88,0.18,11.07,0.55c3.2,0.37,6.17,1.44,8.94,3.19
				c2.48,1.53,4.24,3.27,5.27,5.19c1.03,1.93,1.54,3.75,1.54,5.45c0,0.85-0.2,1.95-0.59,3.28c-0.39,1.33-1.24,2.7-2.55,4.09
				c-1.32,1.39-3.21,2.67-5.7,3.83c-2.49,1.16-5.79,1.95-9.9,2.34v0.17c1.13,0.11,2.68,0.32,4.63,0.64
				c1.95,0.31,3.93,0.84,5.96,1.57c2.03,0.74,3.89,1.72,5.59,2.94c1.7,1.22,2.91,2.8,3.62,4.72c0.43,1.14,0.73,2.43,0.9,3.88
				c0.18,1.45,0.32,2.94,0.43,4.47c0.11,1.53,0.22,3.01,0.32,4.42c0.1,1.42,0.3,2.61,0.58,3.58c0.43,1.48,1.1,2.81,2.02,4
				c0.92,1.19,2.41,1.79,4.47,1.79c0.92,0,1.88-0.14,2.87-0.43s1.88-0.74,2.66-1.36l0.96,0.94c-0.36,0.23-0.77,0.47-1.23,0.72
				c-0.46,0.26-1.05,0.5-1.75,0.73c-0.71,0.22-1.58,0.41-2.61,0.55c-1.03,0.14-2.29,0.21-3.78,0.21c-2.84,0-5.2-0.29-7.08-0.85
				c-1.88-0.57-3.39-1.4-4.52-2.51c-1.14-1.1-1.97-2.47-2.5-4.09c-0.53-1.62-0.9-3.5-1.12-5.66l-0.74-7.75
				c-0.28-2.84-1-5.05-2.13-6.64c-1.13-1.59-2.46-2.75-3.99-3.49c-1.52-0.74-3.1-1.18-4.74-1.32c-1.63-0.14-3.05-0.21-4.26-0.21
				H250.1v30.74h11.81v1.19h-34.27V555.73z M250.1,523.8h9.79c1.99,0,3.8-0.2,5.43-0.6c1.63-0.4,3.04-1.09,4.21-2.09
				c1.17-0.99,2.07-2.34,2.71-4.05c0.64-1.7,0.95-3.86,0.95-6.47c0-2.95-0.48-5.32-1.44-7.11c-0.95-1.79-2.19-3.13-3.72-4.04
				c-1.52-0.91-3.23-1.51-5.1-1.79c-1.88-0.28-3.75-0.43-5.59-0.43c-1.28,0-2.57,0.01-3.88,0.04c-1.31,0.03-2.43,0.1-3.35,0.21
				V523.8z"/>
			<path class="st0" d="M307.39,554.54c0-0.83,0.37-1.54,1.1-2.13c0.73-0.59,1.62-0.88,2.66-0.88c1.05,0,1.93,0.29,2.66,0.88
				c0.74,0.58,1.1,1.3,1.1,2.13c0,0.83-0.36,1.54-1.1,2.13c-0.74,0.59-1.62,0.88-2.66,0.88c-1.04,0-1.93-0.29-2.66-0.88
				C307.76,556.08,307.39,555.37,307.39,554.54z"/>
			<path class="st0" d="M439.74,555.73h11.81v-58.25h-11.81v-1.19h34.27v1.19H462.2v58.25h11.82v1.19h-34.27V555.73z"/>
			<path class="st0" d="M483.23,555.73h11.82v-58.25h-11.82v-1.19h19.8c1,0,1.99-0.01,2.98-0.04c0.99-0.03,1.99-0.07,2.98-0.13
				c0.99,0,1.99-0.01,2.98-0.04c0.99-0.03,1.99-0.04,2.98-0.04c2.12,0,4.02,0.03,5.69,0.09c1.67,0.05,3.23,0.16,4.68,0.3
				c1.46,0.14,2.84,0.34,4.15,0.6c1.31,0.26,2.71,0.58,4.21,0.98c4.32,1.13,8.07,2.65,11.22,4.55c3.16,1.9,5.75,4.1,7.77,6.6
				c2.02,2.5,3.51,5.23,4.47,8.18c0.96,2.95,1.44,6.05,1.44,9.28c0,3.75-0.57,7.11-1.7,10.09c-1.13,2.98-2.69,5.62-4.68,7.92
				c-1.99,2.3-4.32,4.29-6.97,5.96c-2.66,1.67-5.52,3.02-8.57,4.05c-1.7,0.62-3.32,1.11-4.84,1.45c-1.53,0.34-3.09,0.6-4.68,0.77
				c-1.6,0.17-3.36,0.29-5.27,0.34c-1.91,0.05-4.11,0.08-6.6,0.08c-1.07,0-2.2-0.01-3.41-0.04c-1.21-0.03-2.41-0.07-3.62-0.13
				c-1.21-0.06-2.4-0.1-3.57-0.13c-1.18-0.03-2.29-0.04-3.36-0.04h-18.1V555.73z M505.7,555.73c1.21,0.11,2.61,0.2,4.2,0.25
				c1.6,0.06,3.36,0.09,5.27,0.09c2.41,0,4.81-0.1,7.18-0.3c2.38-0.19,4.65-0.62,6.81-1.27c2.17-0.65,4.19-1.59,6.07-2.81
				c1.88-1.22,3.57-2.82,5.05-4.81c2.27-3.06,3.85-6.2,4.74-9.41c0.89-3.21,1.34-6.71,1.34-10.52c0-4.48-0.53-8.56-1.6-12.22
				c-1.06-3.66-2.82-6.79-5.27-9.37c-2.45-2.58-5.69-4.58-9.74-6c-4.04-1.42-9.04-2.13-15.01-2.13c-1.78,0-3.39,0.03-4.84,0.09
				c-1.45,0.06-2.86,0.12-4.2,0.17V555.73z"/>
			<path class="st0" d="M560.82,555.73h9.37l28.74-60.97h2.56l28.95,60.97h9.47v1.19h-32.78v-1.19h11.81l-11.17-23.67h-24.69
				l-11.17,23.67h11.82v1.19h-22.89V555.73z M595.42,506.09l-11.71,24.78h23.42L595.42,506.09z"/>
			<path class="st0" d="M642.99,555.73h11.82v-58.25h-11.82v-1.19h34.27v1.19h-11.81v58.25h18.94c6.24,0,11.15-1.56,14.69-4.68
				c3.55-3.12,6.14-7.38,7.77-12.77h1.17v18.65h-65.04V555.73z"/>
			<path class="st0" d="M813.1,526.52c0-4.54,1.12-8.74,3.35-12.6c2.24-3.86,5.11-7.21,8.63-10.05c3.51-2.84,7.46-5.07,11.87-6.68
				c4.4-1.62,8.8-2.43,13.2-2.43c4.68,0,9.25,0.81,13.68,2.43c4.43,1.62,8.39,3.84,11.87,6.68c3.48,2.84,6.27,6.19,8.36,10.05
				c2.09,3.86,3.14,8.06,3.14,12.6c0,3.97-0.96,7.86-2.87,11.67c-1.92,3.8-4.55,7.18-7.88,10.13c-3.33,2.95-7.25,5.34-11.76,7.15
				c-4.5,1.82-9.35,2.72-14.53,2.72c-5.32,0-10.25-0.88-14.79-2.64c-4.55-1.76-8.47-4.1-11.77-7.03c-3.3-2.92-5.87-6.3-7.72-10.13
				C814.02,534.57,813.1,530.61,813.1,526.52z M825.34,526.52c0,5.11,0.43,9.57,1.28,13.37c0.85,3.8,2.27,6.98,4.26,9.54
				c1.99,2.56,4.54,4.46,7.67,5.71c3.12,1.25,6.99,1.87,11.6,1.87c4.54,0,8.4-0.62,11.55-1.87c3.15-1.25,5.73-3.15,7.72-5.71
				c1.99-2.56,3.41-5.74,4.26-9.54c0.85-3.8,1.28-8.26,1.28-13.37c0-3.92-0.32-7.71-0.96-11.37c-0.64-3.66-1.86-6.93-3.67-9.8
				c-1.8-2.87-4.32-5.15-7.55-6.85c-3.23-1.7-7.44-2.56-12.62-2.56s-9.38,0.85-12.61,2.56c-3.23,1.7-5.75,3.99-7.56,6.85
				c-1.81,2.87-3.03,6.13-3.67,9.8C825.66,518.82,825.34,522.61,825.34,526.52z"/>
			<path class="st0" d="M895.79,555.73h11.82v-58.25h-11.82v-1.19h23.95l19.69,45.81h0.22l19.69-45.81h23.52v1.19h-11.81v58.25
				h11.81v1.19h-34.27v-1.19h11.82V498h-0.22l-25.44,59.01l-25.33-58.42h-0.22v57.14h11.82v1.19h-25.23V555.73z"/>
			<path class="st0" d="M985.53,555.73h9.37l28.74-60.97h2.56l28.95,60.97h9.47v1.19h-32.78v-1.19h11.81l-11.17-23.67h-24.69
				l-11.17,23.67h11.82v1.19h-22.89V555.73z M1020.13,506.09l-11.71,24.78h23.42L1020.13,506.09z"/>
			<path class="st0" d="M1066.74,555.73h11.81v-58.25h-11.81v-1.19h22.77l35.98,46.41h0.22v-45.22h-11.82v-1.19h25.23v1.19h-11.82
				v60.63h-2.13l-44.81-57.14h-0.21v54.76h11.81v1.19h-25.22V555.73z"/>
		</g>
		<g>
			<path class="st0" d="M348.88,496.91c0.27-0.01,0.55-0.04,0.82-0.04c4.71,0,9.42,0.01,14.13-0.01c0.59,0,1.02,0.13,1.45,0.52
				c8.04,7.4,16.29,14.61,24.37,21.98c7.33,6.68,14.76,13.26,22.11,19.91c1.47,1.33,2.93,2.68,4.4,4.02
				c0.22,0.2,0.39,0.38,0.39,0.69c-0.01,4.03-0.01,8.06-0.01,12.08c-0.28,0.12-0.36-0.1-0.48-0.2c-0.99-0.9-1.95-1.81-2.94-2.7
				c-7.63-6.86-15.31-13.68-22.9-20.57c-8.13-7.39-16.38-14.67-24.5-22.07c-4.25-3.87-8.58-7.68-12.81-11.57
				c-0.96-0.88-2.12-1.38-3.39-1.73c-0.21-0.06-0.42-0.11-0.63-0.17c-0.06-0.03-0.08-0.06-0.06-0.09
				C348.84,496.93,348.86,496.91,348.88,496.91"/>
			<path class="st0" d="M361.96,556.15c-4.38,0-8.75,0.01-13.13-0.01c-0.26,0-0.79,0.24-0.77-0.24c0.02-0.35,0.52-0.15,0.76-0.15
				c2.69-0.05,5.15-0.76,7.31-2.18c3.45-2.26,5.24-5.35,5.48-9.18c0.01-0.19-0.1-0.41,0.11-0.55c0.26-0.18,0.61,0.04,0.63,0.39
				c0.07,1.54,0.37,3.04,1.08,4.45c1.93,3.79,5.19,6.09,9.74,6.9c0.81,0.15,1.63,0.15,2.46,0.16c0.13,0,0.29-0.04,0.32,0.14
				c0.04,0.2-0.1,0.26-0.29,0.26c-0.22,0-0.44,0-0.66,0C370.66,556.15,366.31,556.15,361.96,556.15"/>
			<path class="st0" d="M416.53,496.76c4.35,0,8.7,0,13.05,0c0.22,0,0.44-0.01,0.66,0.01c0.14,0.01,0.29,0.04,0.27,0.21
				c-0.02,0.16-0.17,0.15-0.31,0.15c-1.13,0.01-2.25,0.08-3.34,0.36c-5.28,1.33-8.51,4.4-9.71,9.2c-0.16,0.63-0.17,1.27-0.24,1.91
				c-0.02,0.23,0.09,0.51-0.36,0.52c-0.45,0.01-0.37-0.26-0.38-0.49c-0.11-2.62-1-4.99-2.84-7.04c-2.49-2.76-5.71-4.25-9.68-4.42
				c-0.3-0.01-0.59-0.1-0.9-0.03c-0.09,0.02-0.15-0.06-0.16-0.13c-0.03-0.11,0.03-0.21,0.14-0.22c0.22-0.02,0.44-0.02,0.66-0.02
				C407.78,496.76,412.16,496.76,416.53,496.76"/>
		</g>
		<path class="st0" d="M784.35,557.73h-33.64c0.17-0.32,0.44-0.22,0.63-0.24c3.34-0.32,6.13-1.59,8.24-3.95
			c1.57-1.76,2.54-3.77,2.54-6.05c0.02-13.54,0.01-27.08,0.02-40.62c0-1.84-0.07-3.68,0.01-5.51c0.11-2.56-2.08-5.24-5.13-5.92
			c-0.46-0.1-0.91-0.18-1.38-0.16c-0.19,0.01-0.34-0.04-0.35-0.26c0-0.22,0.18-0.24,0.36-0.24c0.2-0.01,0.41,0,0.61,0
			c7.54,0,15.09,0,22.63,0c0.18,0,0.35,0,0.53,0c0.21,0,0.43,0,0.4,0.28c-0.03,0.22-0.21,0.23-0.38,0.22
			c-0.69-0.04-1.34,0.13-1.96,0.34c-2.42,0.83-3.89,2.41-4.45,4.67c-0.06,0.23-0.04,0.47-0.04,0.7c0,15.43-0.01,30.86,0.01,46.29
			c0,2.5,1.01,4.71,2.83,6.6c2.03,2.11,4.58,3.35,7.7,3.62c0.11,0.01,0.23,0.03,0.34,0.08
			C784.01,557.63,784.21,557.54,784.35,557.73"/>
		<path class="st0" d="M799.76,494.76c2.22,0,4.44,0,6.66,0c0.77,0,0.78,0,0.78,0.66c0,3.93,0,7.87-0.01,11.8
			c0,0.2,0.16,0.57-0.18,0.59c-0.38,0.03-0.23-0.35-0.24-0.55c-0.2-5.56-4.35-10.07-9.75-11.55c-1.41-0.38-2.84-0.55-4.3-0.57
			c-0.17,0-0.39,0.05-0.38-0.18c0.01-0.22,0.24-0.19,0.4-0.19c0.26-0.01,0.53,0,0.79,0C795.6,494.76,797.68,494.76,799.76,494.76"/>
		<path class="st0" d="M735.31,494.76c-2.22,0-4.44,0-6.66,0c-0.77,0-0.78,0-0.78,0.66c0,3.93,0,7.87,0.01,11.8
			c0,0.2-0.16,0.57,0.18,0.59c0.38,0.03,0.23-0.35,0.24-0.55c0.2-5.56,4.35-10.07,9.75-11.55c1.41-0.38,2.84-0.55,4.3-0.57
			c0.17,0,0.39,0.05,0.38-0.18c-0.01-0.22-0.24-0.19-0.4-0.19c-0.26-0.01-0.53,0-0.79,0C739.46,494.76,737.38,494.76,735.31,494.76"
			/>
	</g>
	<g>
		<path class="st0" d="M400.1,614.8c0,1.09-0.23,2.06-0.7,2.9c-0.47,0.84-1.11,1.54-1.9,2.1c-0.79,0.56-1.73,0.98-2.79,1.27
			c-1.07,0.29-2.2,0.44-3.39,0.44h-7.8v12.68h-0.94v-25.8h8.18c1.08,0,2.18,0.1,3.28,0.31c1.11,0.21,2.11,0.55,3,1.04
			c0.9,0.49,1.63,1.14,2.2,1.97C399.82,612.53,400.1,613.56,400.1,614.8z M399.16,614.8c0-1.09-0.24-2-0.73-2.73
			c-0.48-0.73-1.11-1.31-1.88-1.75c-0.77-0.44-1.62-0.75-2.58-0.95c-0.95-0.19-1.89-0.29-2.83-0.29h-7.63v11.73h7.84
			c0.93,0,1.87-0.11,2.81-0.33c0.94-0.22,1.77-0.57,2.51-1.06c0.74-0.49,1.34-1.11,1.79-1.88S399.16,615.87,399.16,614.8z"/>
		<path class="st0" d="M410.16,634.19v-25.8h0.94v25.07h15v0.73H410.16z"/>
		<path class="st0" d="M456.66,634.19l-3.59-7.4h-17.52l-3.71,7.4h-1.03l13.09-25.8h1.2l12.58,25.8H456.66z M444.47,608.9
			l-8.57,17.2h16.88L444.47,608.9z"/>
		<path class="st0" d="M482.88,627.99c0,1.09-0.25,2.07-0.75,2.93c-0.5,0.86-1.16,1.59-1.99,2.19c-0.82,0.59-1.79,1.04-2.92,1.35
			c-1.12,0.31-2.29,0.46-3.51,0.46c-1.88,0-3.59-0.29-5.14-0.86c-1.55-0.57-2.84-1.34-3.86-2.31l0.73-0.55
			c1.08,1,2.34,1.74,3.77,2.24c1.44,0.5,2.92,0.75,4.45,0.75c1.11,0,2.16-0.14,3.16-0.42s1.88-0.68,2.65-1.2
			c0.77-0.52,1.37-1.16,1.81-1.93c0.44-0.77,0.66-1.65,0.66-2.64s-0.24-1.84-0.73-2.51c-0.48-0.68-1.11-1.26-1.87-1.75
			c-0.77-0.49-1.64-0.89-2.63-1.22c-0.98-0.33-1.97-0.62-2.96-0.89c-1.25-0.34-2.4-0.7-3.43-1.07c-1.04-0.38-1.93-0.84-2.69-1.38
			c-0.75-0.55-1.34-1.21-1.75-1.97c-0.42-0.77-0.62-1.69-0.62-2.79c0-1.07,0.25-2.02,0.75-2.86s1.17-1.54,2.02-2.11
			c0.85-0.57,1.84-1.01,2.97-1.31c1.12-0.31,2.3-0.46,3.56-0.46c1.53,0,2.99,0.25,4.36,0.75c1.38,0.5,2.51,1.21,3.39,2.13
			l-0.73,0.55c-0.79-0.85-1.81-1.51-3.05-1.98c-1.24-0.47-2.58-0.71-4.03-0.71c-1.02,0-2.02,0.12-3,0.37
			c-0.98,0.24-1.87,0.61-2.67,1.11c-0.8,0.5-1.44,1.12-1.92,1.88c-0.48,0.75-0.73,1.64-0.73,2.66c0,1,0.21,1.84,0.64,2.53
			c0.42,0.69,0.99,1.28,1.71,1.77c0.7,0.49,1.51,0.89,2.4,1.2c0.9,0.32,1.81,0.61,2.75,0.88c1.28,0.36,2.47,0.74,3.58,1.11
			s2.08,0.83,2.92,1.37c0.84,0.53,1.49,1.18,1.96,1.95C482.64,625.97,482.88,626.9,482.88,627.99z"/>
		<path class="st0" d="M500.44,609.12v25.07h-0.94v-25.07h-10.27v-0.73h21.49v0.73H500.44z"/>
		<path class="st0" d="M519.2,634.19v-25.8h0.94v25.8H519.2z"/>
		<path class="st0" d="M549.08,627.99c0,1.09-0.25,2.07-0.75,2.93c-0.5,0.86-1.16,1.59-1.99,2.19c-0.82,0.59-1.79,1.04-2.92,1.35
			c-1.12,0.31-2.29,0.46-3.51,0.46c-1.88,0-3.59-0.29-5.14-0.86c-1.55-0.57-2.84-1.34-3.86-2.31l0.73-0.55
			c1.08,1,2.34,1.74,3.77,2.24c1.44,0.5,2.92,0.75,4.45,0.75c1.11,0,2.16-0.14,3.16-0.42s1.88-0.68,2.65-1.2
			c0.77-0.52,1.37-1.16,1.81-1.93c0.44-0.77,0.66-1.65,0.66-2.64s-0.24-1.84-0.73-2.51c-0.48-0.68-1.11-1.26-1.87-1.75
			c-0.77-0.49-1.64-0.89-2.63-1.22c-0.98-0.33-1.97-0.62-2.96-0.89c-1.25-0.34-2.4-0.7-3.43-1.07c-1.04-0.38-1.93-0.84-2.69-1.38
			c-0.75-0.55-1.34-1.21-1.75-1.97c-0.42-0.77-0.62-1.69-0.62-2.79c0-1.07,0.25-2.02,0.75-2.86c0.5-0.84,1.17-1.54,2.02-2.11
			c0.85-0.57,1.84-1.01,2.97-1.31c1.12-0.31,2.3-0.46,3.56-0.46c1.53,0,2.99,0.25,4.36,0.75c1.38,0.5,2.51,1.21,3.39,2.13
			l-0.73,0.55c-0.79-0.85-1.81-1.51-3.05-1.98c-1.24-0.47-2.58-0.71-4.03-0.71c-1.02,0-2.02,0.12-3,0.37
			c-0.98,0.24-1.87,0.61-2.67,1.11c-0.8,0.5-1.44,1.12-1.92,1.88c-0.48,0.75-0.73,1.64-0.73,2.66c0,1,0.21,1.84,0.64,2.53
			c0.42,0.69,0.99,1.28,1.71,1.77c0.7,0.49,1.51,0.89,2.4,1.2c0.9,0.32,1.81,0.61,2.75,0.88c1.28,0.36,2.47,0.74,3.58,1.11
			s2.08,0.83,2.92,1.37c0.84,0.53,1.49,1.18,1.96,1.95C548.85,625.97,549.08,626.9,549.08,627.99z"/>
		<path class="st0" d="M579.75,633.95c-1.95,0.64-3.93,0.97-5.95,0.97c-2.28,0-4.35-0.34-6.22-1.02c-1.87-0.68-3.49-1.62-4.86-2.82
			c-1.36-1.2-2.42-2.64-3.18-4.32c-0.75-1.68-1.13-3.5-1.13-5.47c0-1.97,0.38-3.79,1.13-5.47c0.75-1.68,1.81-3.12,3.18-4.32
			c1.37-1.2,2.99-2.14,4.88-2.82c1.89-0.68,3.96-1.02,6.2-1.02c1.87,0,3.7,0.27,5.48,0.82c1.77,0.55,3.29,1.38,4.54,2.5l-0.6,0.58
			c-0.6-0.53-1.27-1-2.02-1.4c-0.76-0.4-1.55-0.74-2.39-1c-0.84-0.27-1.69-0.46-2.54-0.58c-0.85-0.12-1.68-0.18-2.47-0.18
			c-2.16,0-4.13,0.34-5.9,1c-1.78,0.67-3.3,1.58-4.57,2.75c-1.26,1.16-2.24,2.53-2.94,4.1c-0.69,1.57-1.04,3.25-1.04,5.05
			c0,1.8,0.34,3.48,1.02,5.05c0.68,1.57,1.66,2.93,2.92,4.1c1.26,1.16,2.79,2.08,4.56,2.75c1.78,0.67,3.76,1,5.95,1
			c1.87,0,3.73-0.31,5.57-0.93c1.83-0.62,3.34-1.55,4.54-2.79l0.68,0.55C583.31,632.33,581.7,633.31,579.75,633.95z"/>
		<path class="st0" d="M615.16,634.19v-12.97h-20.29v12.97h-0.94v-25.8h0.94v12.1h20.29v-12.1h0.93v25.8H615.16z"/>
		<path class="st0" d="M628.32,634.19v-25.8h17.6v0.73h-16.66v11.33h15.68v0.73h-15.68v12.28h17.35v0.73H628.32z"/>
		<path class="st0" d="M673.81,634.19l-9.12-13.01h-7.08v13.01h-0.94v-25.8h8.35c1.11,0,2.24,0.09,3.37,0.26
			c1.13,0.17,2.16,0.49,3.05,0.97c0.89,0.47,1.62,1.12,2.2,1.95c0.56,0.83,0.85,1.9,0.85,3.21c0,1.22-0.28,2.22-0.81,3.02
			c-0.54,0.8-1.24,1.45-2.09,1.95c-0.85,0.5-1.8,0.86-2.83,1.07c-1.04,0.22-2.05,0.33-3.05,0.33l9.16,13.05H673.81z M673.56,614.77
			c0-1.12-0.26-2.05-0.77-2.79c-0.51-0.74-1.19-1.32-2.03-1.75c-0.84-0.42-1.81-0.72-2.89-0.89c-1.09-0.17-2.22-0.26-3.35-0.26h-6.9
			v11.41h7.37c2.79,0,4.91-0.5,6.37-1.49C672.82,618,673.56,616.59,673.56,614.77z"/>
		<path class="st0" d="M718.93,633.95c-1.95,0.64-3.93,0.97-5.95,0.97c-2.28,0-4.35-0.34-6.22-1.02c-1.87-0.68-3.49-1.62-4.86-2.82
			c-1.36-1.2-2.42-2.64-3.18-4.32c-0.75-1.68-1.13-3.5-1.13-5.47c0-1.97,0.38-3.79,1.13-5.47c0.75-1.68,1.81-3.12,3.18-4.32
			c1.37-1.2,2.99-2.14,4.88-2.82c1.89-0.68,3.96-1.02,6.2-1.02c1.87,0,3.7,0.27,5.48,0.82c1.77,0.55,3.29,1.38,4.54,2.5l-0.6,0.58
			c-0.6-0.53-1.27-1-2.02-1.4c-0.76-0.4-1.55-0.74-2.39-1c-0.84-0.27-1.69-0.46-2.54-0.58c-0.85-0.12-1.68-0.18-2.47-0.18
			c-2.16,0-4.13,0.34-5.9,1c-1.78,0.67-3.3,1.58-4.57,2.75c-1.26,1.16-2.24,2.53-2.94,4.1c-0.69,1.57-1.04,3.25-1.04,5.05
			c0,1.8,0.34,3.48,1.02,5.05c0.68,1.57,1.66,2.93,2.92,4.1c1.26,1.16,2.79,2.08,4.56,2.75c1.78,0.67,3.76,1,5.95,1
			c1.87,0,3.73-0.31,5.57-0.93c1.83-0.62,3.34-1.55,4.54-2.79l0.68,0.55C722.49,632.33,720.88,633.31,718.93,633.95z"/>
		<path class="st0" d="M754.34,634.19v-12.97h-20.29v12.97h-0.94v-25.8h0.94v12.1h20.29v-12.1h0.93v25.8H754.34z"/>
		<path class="st0" d="M767.5,634.19v-25.8h0.94v25.8H767.5z"/>
		<path class="st0" d="M797.81,634.19l-9.12-13.01h-7.08v13.01h-0.94v-25.8h8.35c1.11,0,2.24,0.09,3.37,0.26
			c1.13,0.17,2.16,0.49,3.05,0.97c0.89,0.47,1.62,1.12,2.2,1.95c0.56,0.83,0.85,1.9,0.85,3.21c0,1.22-0.28,2.22-0.81,3.02
			c-0.54,0.8-1.24,1.45-2.09,1.95c-0.85,0.5-1.8,0.86-2.83,1.07c-1.04,0.22-2.05,0.33-3.05,0.33l9.16,13.05H797.81z M797.56,614.77
			c0-1.12-0.26-2.05-0.77-2.79c-0.51-0.74-1.19-1.32-2.03-1.75c-0.84-0.42-1.81-0.72-2.89-0.89c-1.09-0.17-2.22-0.26-3.35-0.26h-6.9
			v11.41h7.37c2.79,0,4.91-0.5,6.37-1.49C796.82,618,797.56,616.59,797.56,614.77z"/>
		<path class="st0" d="M831.19,628.52c-0.4,1.28-1.05,2.39-1.96,3.33c-0.91,0.95-2.09,1.7-3.56,2.24c-1.46,0.55-3.26,0.82-5.39,0.82
			c-2.14,0-3.93-0.27-5.39-0.82c-1.47-0.55-2.65-1.29-3.57-2.24c-0.91-0.95-1.56-2.06-1.96-3.33c-0.4-1.28-0.6-2.64-0.6-4.1v-16.03
			h0.94v15.89c0,1.02,0.12,2.1,0.36,3.26s0.74,2.22,1.49,3.21c0.75,0.98,1.82,1.81,3.2,2.46c1.38,0.65,3.22,0.98,5.53,0.98
			c2.24,0,4.06-0.32,5.43-0.95c1.38-0.63,2.45-1.44,3.22-2.42c0.77-0.98,1.28-2.05,1.54-3.21c0.26-1.15,0.38-2.27,0.38-3.33v-15.89
			h0.94v16.03C831.79,625.88,831.59,627.24,831.19,628.52z"/>
		<path class="st0" d="M860.73,634.19l-9.12-13.01h-7.08v13.01h-0.94v-25.8h8.35c1.11,0,2.24,0.09,3.37,0.26
			c1.13,0.17,2.16,0.49,3.05,0.97c0.89,0.47,1.62,1.12,2.2,1.95c0.56,0.83,0.85,1.9,0.85,3.21c0,1.22-0.28,2.22-0.81,3.02
			c-0.54,0.8-1.24,1.45-2.09,1.95c-0.85,0.5-1.8,0.86-2.83,1.07c-1.04,0.22-2.05,0.33-3.05,0.33l9.16,13.05H860.73z M860.48,614.77
			c0-1.12-0.26-2.05-0.77-2.79c-0.51-0.74-1.19-1.32-2.03-1.75c-0.84-0.42-1.81-0.72-2.89-0.89c-1.09-0.17-2.22-0.26-3.35-0.26h-6.9
			v11.41h7.37c2.79,0,4.91-0.5,6.37-1.49C859.74,618,860.48,616.59,860.48,614.77z"/>
		<path class="st0" d="M892.9,634.22c-1.82,0.46-3.93,0.69-6.32,0.69c-2.39,0-4.57-0.35-6.53-1.06c-1.97-0.7-3.65-1.67-5.04-2.9
			c-1.4-1.23-2.47-2.67-3.22-4.33c-0.76-1.67-1.13-3.47-1.13-5.41s0.38-3.75,1.15-5.41c0.77-1.67,1.84-3.1,3.22-4.3
			c1.38-1.2,3.03-2.14,4.97-2.82c1.93-0.68,4.06-1.02,6.39-1.02c2.05,0,3.92,0.27,5.63,0.8c1.71,0.53,3.21,1.26,4.52,2.19
			l-0.68,0.58c-0.56-0.46-1.23-0.87-1.98-1.22c-0.75-0.35-1.55-0.65-2.38-0.89c-0.84-0.24-1.7-0.42-2.59-0.55
			c-0.88-0.12-1.73-0.18-2.56-0.18c-2.22,0-4.23,0.34-6.05,1c-1.82,0.67-3.38,1.58-4.67,2.75c-1.3,1.16-2.29,2.53-2.99,4.08
			c-0.69,1.55-1.04,3.22-1.04,4.99c0,1.77,0.34,3.45,1.02,5.03c0.68,1.58,1.67,2.96,2.96,4.14c1.3,1.18,2.87,2.11,4.73,2.79
			c1.86,0.68,3.97,1.02,6.33,1.02c2.05,0,3.86-0.18,5.46-0.55c1.59-0.36,3.05-0.83,4.38-1.38v-10.13h-7.84v-0.69h8.78v11.26
			C896.24,633.25,894.72,633.76,892.9,634.22z"/>
	</g>
	<g>
		<path class="st0" d="M317.5,156.2c1.25-0.06,2.5-0.16,3.74-0.16c21.44-0.01,42.88,0.03,64.32-0.05c2.69-0.02,4.64,0.58,6.58,2.37
			c36.57,33.69,74.13,66.51,110.9,100.02c33.34,30.39,67.17,60.33,100.64,90.61c6.7,6.07,13.34,12.19,20.02,18.28
			c0.98,0.89,1.77,1.72,1.76,3.15c-0.05,18.34-0.03,36.68-0.03,54.99c-1.28,0.55-1.65-0.44-2.17-0.92
			c-4.49-4.08-8.88-8.25-13.4-12.3c-34.74-31.21-69.67-62.25-104.21-93.64c-37-33.62-74.55-66.76-111.51-100.43
			c-19.35-17.64-39.03-34.97-58.31-52.67c-4.39-4.02-9.63-6.29-15.44-7.86c-0.95-0.26-1.91-0.51-2.86-0.76
			c-0.26-0.13-0.35-0.27-0.27-0.41C317.34,156.28,317.42,156.2,317.5,156.2"/>
		<path class="st0" d="M868.08,425.6H723.81c0.73-1.39,1.87-0.96,2.72-1.04c14.33-1.39,26.3-6.82,35.36-16.96
			c6.75-7.56,10.87-16.17,10.89-25.97c0.09-58.08,0.06-116.17,0.07-174.25c0-7.88-0.28-15.77,0.06-23.64
			c0.48-10.99-8.93-22.47-22.02-25.38c-1.96-0.43-3.9-0.78-5.93-0.7c-0.83,0.04-1.48-0.19-1.48-1.09c-0.01-0.96,0.76-1.02,1.53-1.05
			c0.88-0.03,1.75-0.01,2.63-0.01c32.36,0,64.71,0,97.07,0c0.75,0,1.5-0.01,2.26,0.01c0.91,0.02,1.83,0.02,1.7,1.22
			c-0.11,0.95-0.89,0.98-1.64,0.93c-2.95-0.17-5.74,0.54-8.41,1.46c-10.37,3.57-16.7,10.32-19.09,20.04
			c-0.24,0.97-0.16,2.01-0.16,3.02c-0.01,66.19-0.04,132.37,0.03,198.56c0.01,10.74,4.35,20.2,12.12,28.29
			c8.69,9.05,19.65,14.39,33.01,15.54c0.49,0.05,1,0.15,1.45,0.33C866.61,425.18,867.47,424.78,868.08,425.6"/>
		<path class="st0" d="M377.04,425.82c-19.92,0-39.84,0.03-59.76-0.06c-1.17-0.01-3.59,1.11-3.49-1.07c0.07-1.58,2.35-0.69,3.44-0.7
			c12.26-0.21,23.42-3.45,33.27-9.91c15.72-10.3,23.87-24.37,24.96-41.78c0.05-0.85-0.45-1.86,0.51-2.51
			c1.19-0.8,2.79,0.17,2.86,1.78c0.32,7.02,1.66,13.84,4.93,20.25c8.8,17.24,23.6,27.71,44.35,31.41c3.7,0.66,7.44,0.67,11.18,0.75
			c0.6,0.02,1.3-0.16,1.44,0.63c0.16,0.9-0.45,1.18-1.3,1.2c-1,0.02-2.01,0.02-3.01,0.02C416.63,425.82,396.84,425.82,377.04,425.82
			"/>
		<path class="st0" d="M625.43,155.53c19.8,0,39.61,0,59.41,0c1,0,2.01-0.03,3.01,0.03c0.63,0.03,1.31,0.19,1.21,0.95
			c-0.1,0.74-0.77,0.69-1.41,0.69c-5.13,0.06-10.23,0.37-15.2,1.63c-24.01,6.06-38.74,20.02-44.2,41.86
			c-0.72,2.86-0.76,5.78-1.08,8.68c-0.11,1.03,0.41,2.32-1.66,2.38c-2.06,0.05-1.69-1.17-1.74-2.25
			c-0.51-11.91-4.53-22.72-12.92-32.03c-11.32-12.56-26.01-19.32-44.04-20.11c-1.36-0.06-2.71-0.43-4.1-0.14
			c-0.41,0.09-0.66-0.27-0.74-0.58c-0.12-0.49,0.11-0.95,0.66-1.01c0.99-0.1,2-0.08,3-0.08
			C585.57,155.53,605.5,155.53,625.43,155.53"/>
		<path class="st0" d="M934.16,155.53c9.52,0,19.06-0.01,28.58,0.01c3.32,0,3.34,0.02,3.35,2.82c0.01,16.87,0.02,33.75-0.03,50.63
			c0,0.87,0.7,2.44-0.75,2.53c-1.61,0.11-1-1.48-1.03-2.35c-0.87-23.85-18.66-43.19-41.84-49.54c-6.03-1.65-12.19-2.36-18.46-2.46
			c-0.74-0.02-1.65,0.22-1.61-0.79c0.04-0.95,1.01-0.81,1.71-0.83c1.13-0.04,2.26-0.02,3.38-0.02
			C916.35,155.53,925.26,155.53,934.16,155.53"/>
	</g>
</g>
</svg>
