<svg width="1500" height="171" viewBox="0 0 1500 171" fill="none" xmlns="http://www.w3.org/2000/svg">
<path d="M640.995 55.6161C641.268 55.6032 641.541 55.5803 641.813 55.5803C646.507 55.5783 651.2 55.5872 655.891 55.5683C656.481 55.5653 656.907 55.6968 657.331 56.0873C665.335 63.4603 673.555 70.6441 681.603 77.9773C688.9 84.6281 696.303 91.1824 703.628 97.8084C705.096 99.1362 706.547 100.477 708.008 101.811C708.224 102.005 708.396 102.187 708.394 102.499C708.383 106.514 708.387 110.527 708.387 114.534C708.106 114.654 708.026 114.437 707.912 114.332C706.929 113.44 705.968 112.528 704.979 111.64C697.377 104.81 689.731 98.0146 682.171 91.1465C674.074 83.7874 665.855 76.5349 657.767 69.1669C653.531 65.307 649.225 61.512 645.005 57.6392C644.046 56.7576 642.897 56.2606 641.625 55.9179C641.417 55.8612 641.208 55.8064 641 55.7526C640.944 55.7227 640.924 55.6928 640.941 55.6629C640.959 55.6321 640.976 55.6161 640.995 55.6161Z" fill="#2B2B2A"/>
<path d="M654.024 114.624C649.665 114.624 645.305 114.63 640.945 114.611C640.688 114.609 640.16 114.853 640.182 114.376C640.197 114.029 640.696 114.226 640.935 114.222C643.619 114.175 646.06 113.467 648.217 112.053C651.657 109.798 653.441 106.719 653.681 102.909C653.692 102.723 653.582 102.501 653.792 102.36C654.053 102.185 654.402 102.399 654.419 102.749C654.489 104.285 654.782 105.779 655.498 107.182C657.424 110.955 660.663 113.246 665.205 114.057C666.014 114.202 666.832 114.204 667.652 114.22C667.782 114.224 667.936 114.184 667.966 114.359C668.001 114.556 667.867 114.617 667.68 114.621C667.461 114.626 667.242 114.624 667.021 114.624H654.024Z" fill="#2B2B2A"/>
<path d="M708.386 55.4685H721.388C721.607 55.4685 721.827 55.4625 722.046 55.4755C722.184 55.4825 722.333 55.5163 722.31 55.6827C722.289 55.8441 722.142 55.8321 722.002 55.8331C720.881 55.846 719.763 55.9138 718.676 56.1897C713.421 57.5155 710.199 60.5705 709.003 65.3507C708.846 65.9772 708.836 66.6157 708.767 67.2512C708.743 67.4773 708.857 67.7592 708.405 67.7722C707.952 67.7822 708.034 67.5152 708.024 67.2781C707.913 64.6714 707.033 62.3067 705.196 60.2677C702.719 57.5205 699.505 56.0393 695.559 55.867C695.261 55.855 694.966 55.7723 694.663 55.8361C694.573 55.856 694.518 55.7773 694.5 55.7086C694.474 55.603 694.525 55.5004 694.644 55.4884C694.861 55.4655 695.082 55.4695 695.301 55.4695C699.662 55.4685 704.025 55.4685 708.386 55.4685Z" fill="#2B2B2A"/>
<path d="M1094.3 114.479H1062.79C1062.95 114.176 1063.2 114.27 1063.38 114.252C1066.51 113.949 1069.13 112.764 1071.11 110.549C1072.58 108.899 1073.48 107.017 1073.49 104.878C1073.5 92.1934 1073.5 79.5077 1073.5 66.823C1073.5 65.1021 1073.44 63.3785 1073.51 61.6605C1073.62 59.2595 1071.56 56.7537 1068.71 56.1167C1068.28 56.023 1067.85 55.9471 1067.41 55.9649C1067.23 55.9743 1067.09 55.9237 1067.09 55.7261C1067.09 55.5181 1067.25 55.5031 1067.42 55.4975C1067.61 55.4919 1067.8 55.4947 1067.99 55.4947H1089.19C1089.36 55.4947 1089.52 55.4928 1089.69 55.4966C1089.88 55.4994 1090.09 55.5003 1090.06 55.7617C1090.03 55.9687 1089.86 55.9752 1089.7 55.9649C1089.05 55.9275 1088.45 56.082 1087.86 56.2834C1085.6 57.0638 1084.21 58.5373 1083.69 60.66C1083.64 60.8717 1083.66 61.1003 1083.66 61.3195C1083.66 75.7756 1083.65 90.2299 1083.66 104.686C1083.67 107.032 1084.61 109.096 1086.31 110.865C1088.21 112.841 1090.6 114.007 1093.52 114.26C1093.63 114.269 1093.74 114.292 1093.84 114.331C1093.98 114.386 1094.17 114.299 1094.3 114.479Z" fill="#2B2B2A"/>
<path d="M1108.73 55.496C1110.81 55.496 1112.89 55.4951 1114.97 55.4979C1115.7 55.4979 1115.7 55.5016 1115.7 56.1133C1115.7 59.7995 1115.71 63.4847 1115.7 67.1719C1115.7 67.362 1115.85 67.7039 1115.53 67.7245C1115.18 67.747 1115.31 67.4004 1115.31 67.2103C1115.11 62.0009 1111.23 57.778 1106.17 56.3916C1104.85 56.0318 1103.51 55.8773 1102.14 55.8548C1101.98 55.852 1101.78 55.9035 1101.79 55.6815C1101.79 55.4754 1102.01 55.5054 1102.16 55.4998C1102.4 55.4904 1102.65 55.496 1102.9 55.496H1108.73Z" fill="#2B2B2A"/>
<path d="M1048.36 55.4958C1046.28 55.4958 1044.2 55.4948 1042.12 55.4976C1041.39 55.4976 1041.39 55.5014 1041.39 56.1131C1041.38 59.7993 1041.38 63.4845 1041.39 67.1716C1041.39 67.3618 1041.24 67.7037 1041.56 67.7243C1041.91 67.7468 1041.78 67.4002 1041.78 67.21C1041.97 62.0007 1045.86 57.7777 1050.92 56.3913C1052.24 56.0316 1053.58 55.877 1054.95 55.8546C1055.11 55.8517 1055.31 55.9033 1055.3 55.6813C1055.29 55.4752 1055.08 55.5051 1054.93 55.4995C1054.68 55.4902 1054.44 55.4958 1054.19 55.4958H1048.36Z" fill="#2B2B2A"/>
<path d="M1386.14 113.593H1396.57V56.6633H1386.14V55.498H1406.24L1437.98 100.858H1438.17V56.6633H1427.74V55.498H1450V56.6633H1439.58V115.923H1437.7L1398.16 60.0757H1397.97V113.593H1408.4V114.758H1386.14V113.593Z" fill="#2B2B2A"/>
<path d="M1333.72 65.0696L1323.39 89.2895H1344.05L1333.72 65.0696ZM1303.2 113.593H1311.46L1336.82 54H1339.07L1364.62 113.593H1372.97V114.758H1344.05V113.593H1354.47L1344.61 90.4548H1322.83L1312.96 113.593H1323.39V114.758H1303.2V113.593Z" fill="#2B2B2A"/>
<path d="M1212.75 113.593H1223.18V56.6633H1212.75V55.498H1233.88L1251.26 100.276H1251.44L1268.82 55.498H1289.57V56.6633H1279.15V113.593H1289.57V114.758H1259.33V113.593H1269.76V57.1626H1269.57L1247.12 114.841L1224.77 57.7453H1224.59V113.593H1235.01V114.758H1212.75V113.593Z" fill="#2B2B2A"/>
<path d="M1138.09 85.0448C1138.09 90.0386 1138.47 94.3943 1139.22 98.1119C1139.97 101.83 1141.22 104.937 1142.98 107.434C1144.73 109.931 1146.98 111.789 1149.74 113.01C1152.49 114.231 1155.9 114.841 1159.97 114.841C1163.98 114.841 1167.36 114.231 1170.12 113.01C1172.93 111.789 1175.22 109.931 1176.97 107.434C1178.72 104.937 1179.98 101.83 1180.73 98.1119C1181.48 94.3943 1181.85 90.0386 1181.85 85.0448C1181.85 81.2162 1181.57 77.5264 1181.01 73.9752C1180.45 70.3686 1179.35 67.1781 1177.72 64.4038C1176.16 61.5739 1173.93 59.3267 1171.05 57.6621C1168.24 55.9975 1164.54 55.1652 1159.97 55.1652C1155.4 55.1652 1151.68 55.9975 1148.8 57.6621C1145.98 59.3267 1143.76 61.5739 1142.13 64.4038C1140.57 67.1781 1139.5 70.3686 1138.94 73.9752C1138.37 77.5264 1138.09 81.2162 1138.09 85.0448ZM1127.29 85.0448C1127.29 80.6059 1128.26 76.4999 1130.2 72.7268C1132.21 68.9537 1134.74 65.68 1137.81 62.9056C1140.94 60.1313 1144.45 57.9673 1148.33 56.4137C1152.21 54.8046 1156.09 54 1159.97 54C1164.11 54 1168.11 54.8046 1171.99 56.4137C1175.94 57.9673 1179.44 60.1313 1182.51 62.9056C1185.58 65.68 1188.02 68.9537 1189.84 72.7268C1191.71 76.4999 1192.65 80.6059 1192.65 85.0448C1192.65 88.9289 1191.81 92.7297 1190.12 96.4473C1188.43 100.165 1186.11 103.466 1183.17 106.352C1180.23 109.237 1176.75 111.567 1172.74 113.343C1168.8 115.119 1164.54 116.006 1159.97 116.006C1155.28 116.006 1150.93 115.146 1146.92 113.426C1142.91 111.706 1139.44 109.431 1136.5 106.601C1133.62 103.716 1131.36 100.415 1129.73 96.697C1128.11 92.9239 1127.29 89.0399 1127.29 85.0448Z" fill="#2B2B2A"/>
<path d="M944.65 113.593H955.074V56.6633H944.65V55.498H974.889V56.6633H964.465V113.593H981.181C986.691 113.593 991.011 112.067 994.141 109.015C997.271 105.963 999.556 101.802 1001 96.5305H1002.03V114.758H944.65V113.593Z" fill="#2B2B2A"/>
<path d="M891.383 65.0696L881.053 89.2895H901.713L891.383 65.0696ZM860.862 113.593H869.126L894.482 54H896.736L922.279 113.593H930.637V114.758H901.713V113.593H912.137L902.277 90.4548H880.489L870.629 113.593H881.053V114.758H860.862V113.593Z" fill="#2B2B2A"/>
<path d="M800.878 113.593C801.943 113.704 803.164 113.787 804.541 113.842C805.981 113.898 807.546 113.925 809.236 113.925C811.365 113.925 813.462 113.842 815.528 113.676C817.657 113.454 819.66 113.038 821.539 112.427C823.479 111.762 825.264 110.846 826.891 109.681C828.582 108.46 830.084 106.879 831.399 104.937C833.403 101.94 834.78 98.8886 835.531 95.7813C836.345 92.6186 836.752 89.1784 836.752 85.4608C836.752 81.0774 836.282 77.1101 835.343 73.5589C834.404 69.9523 832.839 66.9005 830.648 64.4036C828.519 61.8512 825.671 59.8814 822.102 58.4943C818.534 57.1071 814.12 56.4135 808.861 56.4135C807.296 56.4135 805.856 56.4413 804.541 56.4967C803.289 56.5522 802.068 56.6077 800.878 56.6632V113.593ZM781.063 113.593H791.487V56.6632H781.063V55.498H798.531C799.407 55.498 800.284 55.498 801.16 55.498C802.037 55.4425 802.913 55.387 803.79 55.3315C804.666 55.3315 805.543 55.3315 806.419 55.3315C807.296 55.276 808.172 55.2483 809.049 55.2483C810.927 55.2483 812.586 55.276 814.026 55.3315C815.528 55.387 816.906 55.498 818.158 55.6644C819.473 55.7754 820.693 55.9696 821.82 56.2471C823.01 56.469 824.262 56.7742 825.577 57.1626C829.396 58.2723 832.683 59.7705 835.437 61.657C838.255 63.4881 840.54 65.6243 842.293 68.0657C844.108 70.5071 845.423 73.1705 846.237 76.0558C847.113 78.9411 847.552 81.9651 847.552 85.1279C847.552 88.79 847.051 92.0915 846.049 95.0323C845.047 97.9176 843.67 100.498 841.917 102.773C840.164 104.992 838.098 106.934 835.719 108.599C833.403 110.208 830.898 111.512 828.206 112.511C826.704 113.121 825.264 113.593 823.886 113.925C822.572 114.258 821.194 114.508 819.754 114.675C818.377 114.841 816.843 114.952 815.153 115.007C813.462 115.063 811.522 115.091 809.33 115.091C808.391 115.091 807.39 115.063 806.325 115.007C805.261 115.007 804.197 114.98 803.132 114.924C802.068 114.869 801.004 114.813 799.939 114.758C798.938 114.758 797.967 114.758 797.028 114.758H781.063V113.593Z" fill="#2B2B2A"/>
<path d="M733.668 113.593H744.092V56.6633H733.668V55.498H763.907V56.6633H753.483V113.593H763.907V114.758H733.668V113.593Z" fill="#2B2B2A"/>
<path d="M580.417 111.494C580.417 110.591 580.764 109.832 581.458 109.216C582.199 108.559 583.079 108.231 584.098 108.231C585.117 108.231 585.973 108.559 586.668 109.216C587.409 109.832 587.779 110.591 587.779 111.494C587.779 112.397 587.409 113.176 586.668 113.833C585.973 114.449 585.117 114.757 584.098 114.757C583.079 114.757 582.199 114.449 581.458 113.833C580.764 113.176 580.417 112.397 580.417 111.494Z" fill="#2B2B2A"/>
<path d="M525.44 82.3813H534.08C535.833 82.3813 537.429 82.1871 538.869 81.7987C540.309 81.4103 541.53 80.7444 542.532 79.8012C543.596 78.8024 544.41 77.4707 544.973 75.8061C545.537 74.1415 545.818 72.033 545.818 69.4806C545.818 66.5953 545.38 64.2926 544.504 62.5725C543.69 60.797 542.594 59.4653 541.217 58.5775C539.902 57.6897 538.4 57.1071 536.709 56.8297C535.081 56.5522 533.454 56.4135 531.826 56.4135C530.699 56.4135 529.541 56.4413 528.351 56.4967C527.224 56.4967 526.254 56.5522 525.44 56.6632V82.3813ZM505.625 113.593H516.049V56.6632H505.625V55.498H523.468C524.219 55.498 524.97 55.498 525.722 55.498C526.473 55.4425 527.224 55.387 527.976 55.3315C528.727 55.3315 529.478 55.3315 530.229 55.3315C530.981 55.276 531.732 55.2483 532.483 55.2483C536.177 55.2483 539.433 55.4425 542.25 55.8309C545.067 56.1638 547.697 57.1903 550.138 58.9104C552.329 60.4086 553.863 62.1009 554.74 63.9874C555.679 65.874 556.148 67.6496 556.148 69.3142C556.148 70.1465 555.961 71.2285 555.585 72.5601C555.272 73.8363 554.521 75.168 553.331 76.5552C552.204 77.8869 550.545 79.1353 548.354 80.3005C546.163 81.4103 543.252 82.1593 539.62 82.5478V82.7142C540.622 82.8252 541.968 83.0471 543.659 83.3801C545.411 83.6575 547.164 84.1569 548.917 84.8782C550.733 85.5995 552.392 86.5705 553.895 87.7913C555.397 88.9565 556.462 90.4824 557.088 92.3689C557.463 93.4786 557.714 94.7548 557.839 96.1975C558.027 97.5847 558.152 99.0273 558.215 100.525C558.34 102.024 558.434 103.466 558.496 104.853C558.621 106.241 558.809 107.406 559.06 108.349C559.435 109.792 560.03 111.096 560.844 112.261C561.658 113.426 562.973 114.009 564.788 114.009C565.602 114.009 566.447 113.87 567.324 113.593C568.2 113.315 568.983 112.871 569.672 112.261L570.517 113.176C570.204 113.398 569.828 113.648 569.39 113.925C569.014 114.147 568.513 114.369 567.887 114.591C567.261 114.813 566.479 114.98 565.54 115.091C564.663 115.257 563.567 115.34 562.253 115.34C559.748 115.34 557.651 115.063 555.961 114.508C554.333 113.953 553.018 113.149 552.016 112.094C551.015 110.985 550.263 109.653 549.763 108.099C549.324 106.49 549.011 104.631 548.824 102.523L548.166 94.949C547.916 92.1747 547.29 90.0107 546.288 88.4571C545.286 86.9035 544.097 85.766 542.719 85.0447C541.405 84.3233 540.027 83.9072 538.587 83.7962C537.147 83.6297 535.895 83.5465 534.831 83.5465H525.44V113.593H535.864V114.758H505.625V113.593Z" fill="#2B2B2A"/>
<path d="M437.592 113.593C438.657 113.704 439.877 113.787 441.255 113.842C442.695 113.898 444.26 113.925 445.95 113.925C448.079 113.925 450.176 113.842 452.242 113.676C454.371 113.454 456.374 113.038 458.252 112.427C460.193 111.762 461.978 110.846 463.605 109.681C465.296 108.46 466.798 106.879 468.113 104.937C470.116 101.94 471.494 98.8886 472.245 95.7813C473.059 92.6186 473.466 89.1784 473.466 85.4608C473.466 81.0774 472.996 77.1101 472.057 73.5589C471.118 69.9523 469.553 66.9005 467.362 64.4036C465.233 61.8512 462.385 59.8814 458.816 58.4943C455.247 57.1071 450.834 56.4135 445.575 56.4135C444.009 56.4135 442.57 56.4413 441.255 56.4967C440.003 56.5522 438.782 56.6077 437.592 56.6632V113.593ZM417.777 113.593H428.201V56.6632H417.777V55.498H435.245C436.121 55.498 436.998 55.498 437.874 55.498C438.751 55.4425 439.627 55.387 440.504 55.3315C441.38 55.3315 442.257 55.3315 443.133 55.3315C444.009 55.276 444.886 55.2483 445.762 55.2483C447.641 55.2483 449.3 55.276 450.74 55.3315C452.242 55.387 453.62 55.498 454.872 55.6644C456.186 55.7754 457.407 55.9696 458.534 56.2471C459.724 56.469 460.976 56.7742 462.291 57.1626C466.11 58.2723 469.396 59.7705 472.151 61.657C474.968 63.4881 477.254 65.6243 479.007 68.0657C480.822 70.5071 482.137 73.1705 482.951 76.0558C483.827 78.9411 484.266 81.9651 484.266 85.1279C484.266 88.79 483.765 92.0915 482.763 95.0323C481.761 97.9176 480.384 100.498 478.631 102.773C476.878 104.992 474.812 106.934 472.433 108.599C470.116 110.208 467.612 111.512 464.92 112.511C463.418 113.121 461.978 113.593 460.6 113.925C459.285 114.258 457.908 114.508 456.468 114.675C455.091 114.841 453.557 114.952 451.867 115.007C450.176 115.063 448.235 115.091 446.044 115.091C445.105 115.091 444.103 115.063 443.039 115.007C441.975 115.007 440.91 114.98 439.846 114.924C438.782 114.869 437.718 114.813 436.653 114.758C435.652 114.758 434.681 114.758 433.742 114.758H417.777V113.593Z" fill="#2B2B2A"/>
<path d="M342.103 111.494C342.103 110.591 342.45 109.832 343.144 109.216C343.885 108.559 344.765 108.231 345.784 108.231C346.803 108.231 347.659 108.559 348.354 109.216C349.095 109.832 349.465 110.591 349.465 111.494C349.465 112.397 349.095 113.176 348.354 113.833C347.659 114.449 346.803 114.757 345.784 114.757C344.765 114.757 343.885 114.449 343.144 113.833C342.45 113.176 342.103 112.397 342.103 111.494Z" fill="#2B2B2A"/>
<path d="M290.611 113.593H301.035V56.6633H290.611V55.498H344.327V69.8968H343.294C342.48 67.7329 341.604 65.8463 340.665 64.2372C339.726 62.5726 338.599 61.1854 337.284 60.0757C335.969 58.9105 334.404 58.0504 332.589 57.4956C330.773 56.9407 328.582 56.6633 326.015 56.6633H310.426V83.6298H316.53C318.596 83.6298 320.349 83.4633 321.789 83.1304C323.229 82.7975 324.45 82.1872 325.451 81.2994C326.516 80.3561 327.392 79.1076 328.081 77.554C328.832 75.9449 329.552 73.8919 330.241 71.395H331.274V97.2795H330.241C329.803 95.6704 329.333 94.1168 328.832 92.6187C328.394 91.1205 327.737 89.7888 326.86 88.6236C326.046 87.4584 324.919 86.5429 323.479 85.877C322.102 85.1557 320.286 84.795 318.033 84.795H310.426V113.593H320.85V114.758H290.611V113.593Z" fill="#2B2B2A"/>
<path d="M215.576 85.0448C215.576 90.0386 215.951 94.3943 216.702 98.1119C217.454 101.83 218.706 104.937 220.459 107.434C222.212 109.931 224.466 111.789 227.22 113.01C229.975 114.231 233.387 114.841 237.457 114.841C241.463 114.841 244.844 114.231 247.599 113.01C250.416 111.789 252.701 109.931 254.454 107.434C256.207 104.937 257.459 101.83 258.211 98.1119C258.962 94.3943 259.338 90.0386 259.338 85.0448C259.338 81.2162 259.056 77.5264 258.492 73.9752C257.929 70.3686 256.833 67.1781 255.205 64.4038C253.64 61.5739 251.418 59.3267 248.538 57.6621C245.721 55.9975 242.027 55.1652 237.457 55.1652C232.886 55.1652 229.161 55.9975 226.281 57.6621C223.464 59.3267 221.241 61.5739 219.614 64.4038C218.048 67.1781 216.984 70.3686 216.421 73.9752C215.857 77.5264 215.576 81.2162 215.576 85.0448ZM204.776 85.0448C204.776 80.6059 205.746 76.4999 207.687 72.7268C209.69 68.9537 212.226 65.68 215.294 62.9056C218.424 60.1313 221.93 57.9673 225.812 56.4137C229.693 54.8046 233.575 54 237.457 54C241.589 54 245.595 54.8046 249.477 56.4137C253.421 57.9673 256.927 60.1313 259.995 62.9056C263.063 65.68 265.504 68.9537 267.32 72.7268C269.198 76.4999 270.137 80.6059 270.137 85.0448C270.137 88.9289 269.292 92.7297 267.602 96.4473C265.911 100.165 263.595 103.466 260.652 106.352C257.71 109.237 254.235 111.567 250.228 113.343C246.284 115.119 242.027 116.006 237.457 116.006C232.761 116.006 228.41 115.146 224.403 113.426C220.396 111.706 216.922 109.431 213.979 106.601C211.099 103.716 208.845 100.415 207.218 96.697C205.59 92.9239 204.776 89.0399 204.776 85.0448Z" fill="#2B2B2A"/>
<path d="M141.98 82.3813H150.62C152.373 82.3813 153.969 82.1871 155.409 81.7987C156.849 81.4103 158.07 80.7444 159.072 79.8012C160.136 78.8024 160.95 77.4707 161.513 75.8061C162.077 74.1415 162.358 72.033 162.358 69.4806C162.358 66.5953 161.92 64.2926 161.044 62.5725C160.23 60.797 159.134 59.4653 157.757 58.5775C156.442 57.6897 154.94 57.1071 153.249 56.8297C151.621 56.5522 149.994 56.4135 148.366 56.4135C147.239 56.4135 146.081 56.4413 144.891 56.4967C143.764 56.4967 142.794 56.5522 141.98 56.6632V82.3813ZM122.165 113.593H132.589V56.6632H122.165V55.498H140.008C140.759 55.498 141.51 55.498 142.262 55.498C143.013 55.4425 143.764 55.387 144.516 55.3315C145.267 55.3315 146.018 55.3315 146.769 55.3315C147.521 55.276 148.272 55.2483 149.023 55.2483C152.717 55.2483 155.973 55.4425 158.79 55.8309C161.607 56.1638 164.237 57.1903 166.678 58.9104C168.87 60.4086 170.403 62.1009 171.28 63.9874C172.219 65.874 172.689 67.6496 172.689 69.3142C172.689 70.1465 172.501 71.2285 172.125 72.5601C171.812 73.8363 171.061 75.168 169.871 76.5552C168.744 77.8869 167.085 79.1353 164.894 80.3005C162.703 81.4103 159.792 82.1593 156.16 82.5478V82.7142C157.162 82.8252 158.508 83.0471 160.199 83.3801C161.952 83.6575 163.704 84.1569 165.457 84.8782C167.273 85.5995 168.932 86.5705 170.435 87.7913C171.937 88.9565 173.002 90.4824 173.628 92.3689C174.003 93.4786 174.254 94.7548 174.379 96.1975C174.567 97.5847 174.692 99.0273 174.755 100.525C174.88 102.024 174.974 103.466 175.036 104.853C175.162 106.241 175.349 107.406 175.6 108.349C175.975 109.792 176.57 111.096 177.384 112.261C178.198 113.426 179.513 114.009 181.328 114.009C182.142 114.009 182.987 113.87 183.864 113.593C184.74 113.315 185.523 112.871 186.212 112.261L187.057 113.176C186.744 113.398 186.368 113.648 185.93 113.925C185.554 114.147 185.053 114.369 184.427 114.591C183.801 114.813 183.019 114.98 182.08 115.091C181.203 115.257 180.107 115.34 178.793 115.34C176.288 115.34 174.191 115.063 172.501 114.508C170.873 113.953 169.558 113.149 168.557 112.094C167.555 110.985 166.804 109.653 166.303 108.099C165.864 106.49 165.551 104.631 165.364 102.523L164.706 94.949C164.456 92.1747 163.83 90.0107 162.828 88.4571C161.826 86.9035 160.637 85.766 159.259 85.0447C157.945 84.3233 156.567 83.9072 155.127 83.7962C153.687 83.6297 152.435 83.5465 151.371 83.5465H141.98V113.593H152.404V114.758H122.165V113.593Z" fill="#2B2B2A"/>
<path d="M69.815 84.9617C71.0671 85.1836 72.3818 85.3501 73.7592 85.461C75.1365 85.572 76.3574 85.6275 77.4217 85.6275C82.0546 85.6275 85.6544 84.4345 88.2213 82.0486C90.8508 79.6072 92.1655 75.9451 92.1655 71.0622C92.1655 68.2324 91.8525 65.8742 91.2264 63.9877C90.6004 62.1011 89.5987 60.603 88.2213 59.4933C86.9066 58.328 85.1536 57.5235 82.9624 57.0796C80.8337 56.6357 78.2669 56.4138 75.2618 56.4138C74.0722 56.4138 72.9766 56.4415 71.9749 56.497C71.0358 56.5525 70.3158 56.608 69.815 56.6634V84.9617ZM50 113.593H60.424V56.6634H50V55.4982H67.6551C68.5315 55.4982 69.408 55.4982 70.2845 55.4982C71.161 55.4427 72.0375 55.3872 72.914 55.3318C73.7905 55.3318 74.6357 55.3318 75.4496 55.3318C76.3261 55.2763 77.2026 55.2485 78.079 55.2485C81.6476 55.2485 84.9345 55.6369 87.9396 56.4138C91.0073 57.1351 93.6368 58.1893 95.828 59.5765C98.0818 60.9637 99.8348 62.6283 101.087 64.5703C102.339 66.5123 102.965 68.6763 102.965 71.0622C102.965 73.5592 102.245 75.7786 100.805 77.7207C99.3653 79.6627 97.4558 81.2995 95.0767 82.6312C92.6977 83.9629 89.9117 84.9894 86.7188 85.7107C83.5884 86.4321 80.3016 86.7927 76.8582 86.7927C75.9817 86.7927 74.8548 86.7372 73.4775 86.6263C72.1001 86.4598 70.8793 86.2934 69.815 86.1269V113.593H80.239V114.758H50V113.593Z" fill="#2B2B2A"/>
</svg>
